# Blender v2.79 (sub 0) OBJ File: 'house.blend'
# www.blender.org
o Sphere.002
v 1.709395 3.790995 -2.639016
v 1.260803 3.076927 -1.996666
v 1.503441 4.669670 -1.718622
v 2.151457 4.279298 -1.178960
v 2.078719 3.847402 -2.125016
v 2.288216 3.800768 -1.160974
v 2.168400 3.178527 -1.513365
v 1.556972 2.812633 -1.437352
v 1.559294 3.428895 -0.370501
v 1.202132 4.220311 -0.546334
v 0.624286 4.267851 -1.029170
v 0.570249 3.071435 -0.699255
v 1.140355 4.605765 -1.123102
v 0.834040 4.427122 -1.881976
v 0.742374 3.765736 -2.034930
v 1.321700 8.237035 -1.467634
v 1.543723 7.559690 -2.301170
v 1.045659 6.489886 -2.243135
v 1.568216 6.923935 -1.980872
v 1.769346 5.351059 -1.766915
v 1.366770 8.527454 -0.472860
v 1.849867 8.301308 -0.832274
v 2.805682 7.589982 -1.104914
v 2.537203 5.543999 -1.922716
v 3.074274 7.840938 -0.343719
v 3.083711 5.649623 -1.052325
v 1.503154 4.254910 0.030423
v 2.499988 8.533829 0.321155
v 2.037462 8.366598 0.679730
v 3.255273 6.599689 0.159879
v 2.872581 4.785519 0.113928
v 2.302249 7.651381 1.694817
v 2.632245 5.477859 1.822946
v 1.714006 6.383126 2.262139
v 2.056027 4.957055 1.949857
v 1.583649 4.381784 1.034161
v 1.580178 7.544634 1.601411
v 1.232355 8.580435 0.919016
v 0.528990 5.727975 2.472911
v 0.843606 4.744857 1.757918
v 1.024673 7.883605 1.846866
v 0.500686 7.266834 2.172307
v -0.123415 6.494351 2.010400
v 0.085214 5.019081 1.928553
v 0.406650 7.955078 1.225965
v 0.847911 4.086383 0.990941
v 1.409397 8.336762 0.158863
v -0.186063 6.450056 0.398751
v -0.087747 5.240083 0.179531
v 0.491093 4.114025 0.171405
v 1.047674 4.162917 0.287617
v 0.122731 7.841722 0.035429
v -0.298867 7.203170 -0.595641
v 0.972190 8.441332 0.009648
v 0.314174 8.150117 -1.164580
v 0.521530 5.494444 -1.365015
v 0.824960 4.669210 -0.802706
v 0.227392 7.359614 -1.603717
v 1.097839 5.582074 -1.776128
v 1.742718 4.655417 -1.213752
v 0.611623 4.840732 1.562673
v -0.071825 4.163098 1.234232
v 0.455462 3.671340 1.425048
v 0.917499 4.476708 1.471653
v 0.492657 5.213994 2.041679
v 0.012686 3.287543 1.995667
v 1.121290 4.593529 2.723362
v 1.163744 3.881673 2.536862
v 0.255247 4.583309 3.897191
v 0.202095 3.632172 2.932616
v -0.173716 4.129058 3.392026
v -0.431064 5.118645 3.510220
v -1.299389 4.208274 3.109159
v -0.707649 3.860672 3.005478
v -0.291441 3.382002 2.495791
v 0.387321 5.302832 2.670344
v -1.126395 4.805274 2.788625
v -1.122947 4.062875 2.573382
v -0.631424 4.853584 2.050270
v -0.332034 5.255185 2.367898
v -0.481571 3.932179 1.576060
v -0.332113 3.433117 1.727457
v 0.904577 2.392485 -0.056921
v 1.163881 1.729197 -0.099709
v 1.520303 2.485220 0.141407
v 1.559103 2.725765 -1.175867
v 1.239772 2.488522 -1.375838
v 1.542354 3.094509 -1.179566
v 1.286157 3.037175 -1.368285
v 1.587492 3.052196 -1.470162
v 1.544264 2.849301 0.839813
v 0.426935 3.987643 2.317500
v 1.339120 2.133336 1.015282
v 1.151486 2.491766 0.962494
v 0.156224 3.829574 2.516165
v 0.542950 3.841519 2.488937
v 0.758781 3.296156 1.563474
v 1.362092 3.628863 1.536441
v 0.669931 0.047284 -0.446552
v 1.513024 0.051663 1.432441
v 0.127349 0.055601 0.504358
v 1.798860 2.592958 0.240075
v 0.756665 2.105727 1.091421
v 0.874820 3.221730 0.046848
v 1.578744 4.363339 0.136132
v 1.265579 4.299436 0.844553
v 0.945122 4.303178 -0.023847
v 1.551148 3.208657 0.763343
v 0.970560 3.166826 0.727762
v 0.608573 0.050584 1.337611
v 1.832823 0.051701 -0.251227
v 2.135445 0.051674 0.678826
vt 0.416787 0.915179
vt 0.424009 0.930564
vt 0.413159 0.932896
vt 0.417386 0.548481
vt 0.436383 0.535989
vt 0.424207 0.588727
vt 0.216648 0.816871
vt 0.230281 0.795492
vt 0.250627 0.804216
vt 0.433944 0.810580
vt 0.415622 0.838282
vt 0.425756 0.795760
vt 0.219232 0.774841
vt 0.448578 0.822976
vt 0.239015 0.765133
vt 0.437932 0.499135
vt 0.418995 0.514699
vt 0.395833 0.479774
vt 0.148675 0.631771
vt 0.153296 0.619259
vt 0.154653 0.643913
vt 0.439096 0.515517
vt 0.392806 0.528993
vt 0.406979 0.530325
vt 0.395048 0.554315
vt 0.248472 0.843184
vt 0.215541 0.868870
vt 0.211151 0.846911
vt 0.249216 0.882339
vt 0.202028 0.622573
vt 0.230677 0.606922
vt 0.254398 0.641291
vt 0.331875 0.904726
vt 0.336085 0.938594
vt 0.312421 0.917533
vt 0.336115 0.489423
vt 0.382099 0.465868
vt 0.390448 0.502676
vt 0.247909 0.585536
vt 0.214458 0.600094
vt 0.200198 0.582812
vt 0.241086 0.544456
vt 0.239427 0.568872
vt 0.280288 0.565841
vt 0.275662 0.498950
vt 0.165325 0.566038
vt 0.358400 0.675501
vt 0.335746 0.652278
vt 0.365676 0.657711
vt 0.025782 0.634410
vt 0.039297 0.625497
vt 0.023182 0.655003
vt 0.175775 0.508785
vt 0.206250 0.468216
vt 0.247079 0.475630
vt 0.265443 0.465513
vt 0.362832 0.653346
vt 0.359165 0.637981
vt 0.037763 0.753142
vt 0.038080 0.702220
vt 0.063680 0.756145
vt 0.236017 0.750846
vt 0.196022 0.758025
vt 0.215178 0.727901
vt 0.040562 0.874047
vt 0.021771 0.921932
vt 0.019160 0.875407
vt 0.044239 0.658452
vt 0.079098 0.665871
vt 0.199829 0.695009
vt 0.190669 0.710291
vt 0.023595 0.847246
vt 0.078899 0.721749
vt 0.102864 0.691984
vt 0.103048 0.745956
vt 0.141516 0.801039
vt 0.154229 0.779008
vt 0.153351 0.801051
vt 0.063077 0.643808
vt 0.097711 0.640048
vt 0.121045 0.676442
vt 0.137046 0.502644
vt 0.095582 0.493863
vt 0.126723 0.467397
vt 0.197136 0.909419
vt 0.197843 0.891029
vt 0.206698 0.909419
vt 0.138892 0.525563
vt 0.150580 0.534961
vt 0.122518 0.556327
vt 0.098485 0.526414
vt 0.032082 0.537673
vt 0.362589 0.777060
vt 0.365225 0.793988
vt 0.358552 0.793988
vt 0.049834 0.515871
vt 0.029619 0.506419
vt 0.290251 0.630345
vt 0.315468 0.640492
vt 0.270895 0.657348
vt 0.161449 0.692039
vt 0.172970 0.668119
vt 0.172255 0.690702
vt 0.111043 0.541203
vt 0.092737 0.578941
vt 0.054472 0.602130
vt 0.080720 0.618284
vt 0.180479 0.696462
vt 0.022607 0.588483
vt 0.019372 0.565689
vt 0.314637 0.665895
vt 0.282875 0.688590
vt 0.257525 0.688542
vt 0.268470 0.721640
vt 0.199318 0.648043
vt 0.125963 0.727103
vt 0.154458 0.724242
vt 0.145994 0.742350
vt 0.139967 0.709161
vt 0.051130 0.790725
vt 0.025141 0.783301
vt 0.031154 0.757614
vt 0.084003 0.779501
vt 0.115015 0.761589
vt 0.085730 0.796243
vt 0.080161 0.795312
vt 0.063468 0.836955
vt 0.293252 0.592205
vt 0.304243 0.585088
vt 0.304243 0.599217
vt 0.105860 0.860267
vt 0.128744 0.881375
vt 0.086639 0.891389
vt 0.160314 0.817505
vt 0.180736 0.820233
vt 0.199479 0.837880
vt 0.191692 0.911919
vt 0.196486 0.891308
vt 0.194500 0.927498
vt 0.412242 0.852077
vt 0.387237 0.854053
vt 0.405958 0.833480
vt 0.370886 0.826518
vt 0.387197 0.797218
vt 0.199764 0.806230
vt 0.168183 0.772024
vt 0.167729 0.805323
vt 0.199824 0.771564
vt 0.200581 0.786366
vt 0.108377 0.822768
vt 0.081645 0.813243
vt 0.873908 0.698955
vt 0.877265 0.661955
vt 0.867082 0.668945
vt 0.743089 0.719524
vt 0.739412 0.691678
vt 0.733812 0.692746
vt 0.786740 0.703723
vt 0.791203 0.706583
vt 0.789376 0.694895
vt 0.803942 0.494834
vt 0.804778 0.488834
vt 0.799773 0.489660
vt 0.899218 0.528293
vt 0.906146 0.556615
vt 0.907334 0.499643
vt 0.686304 0.566188
vt 0.684202 0.539654
vt 0.683888 0.512585
vt 0.898386 0.645692
vt 0.891108 0.647004
vt 0.898071 0.669964
vt 0.625803 0.678555
vt 0.642380 0.657106
vt 0.637693 0.657967
vt 0.902865 0.556740
vt 0.877512 0.576581
vt 0.869061 0.504211
vt 0.885638 0.501779
vt 0.815104 0.647436
vt 0.818871 0.692158
vt 0.798928 0.693074
vt 0.848344 0.575590
vt 0.832549 0.500322
vt 0.849224 0.498817
vt 0.855440 0.558609
vt 0.863752 0.499654
vt 0.790363 0.649994
vt 0.791653 0.693894
vt 0.769472 0.694090
vt 0.847801 0.600899
vt 0.807780 0.592735
vt 0.811956 0.617987
vt 0.802140 0.617826
vt 0.774816 0.619899
vt 0.786493 0.593652
vt 0.413714 0.581861
vt 0.456191 0.841914
vt 0.458780 0.835247
vt 0.439693 0.576438
vt 0.439496 0.847898
vt 0.362620 0.521878
vt 0.344376 0.549834
vt 0.319120 0.518780
vt 0.425421 0.471894
vt 0.219910 0.894479
vt 0.372670 0.881607
vt 0.381621 0.859705
vt 0.396591 0.872264
vt 0.319769 0.686529
vt 0.321129 0.546410
vt 0.345815 0.572947
vt 0.410954 0.888768
vt 0.398363 0.896060
vt 0.396591 0.866693
vt 0.331750 0.726373
vt 0.390448 0.520423
vt 0.375147 0.539160
vt 0.358081 0.709464
vt 0.214186 0.658107
vt 0.247241 0.684151
vt 0.052849 0.625479
vt 0.252041 0.813026
vt 0.256851 0.838829
vt 0.019885 0.732202
vt 0.321498 0.577546
vt 0.312373 0.559906
vt 0.186515 0.733841
vt 0.336504 0.913692
vt 0.358637 0.903583
vt 0.358637 0.930700
vt 0.082807 0.756843
vt 0.172062 0.757890
vt 0.165660 0.727202
vt 0.067498 0.621975
vt 0.080424 0.633686
vt 0.376734 0.912638
vt 0.379612 0.923642
vt 0.365676 0.928209
vt 0.157323 0.734754
vt 0.156203 0.514687
vt 0.251267 0.921604
vt 0.235083 0.910995
vt 0.247946 0.908091
vt 0.328709 0.610311
vt 0.301116 0.622686
vt 0.115844 0.588365
vt 0.046594 0.558043
vt 0.292666 0.545893
vt 0.294994 0.526023
vt 0.129727 0.907120
vt 0.110491 0.930437
vt 0.105984 0.899762
vt 0.022925 0.619259
vt 0.032239 0.599585
vt 0.316146 0.506779
vt 0.298157 0.484346
vt 0.105984 0.922059
vt 0.089759 0.906919
vt 0.103779 0.899922
vt 0.180644 0.866220
vt 0.180705 0.886232
vt 0.163051 0.856452
vt 0.167660 0.902795
vt 0.185516 0.907041
vt 0.110415 0.810694
vt 0.128700 0.814283
vt 0.134420 0.790125
vt 0.137512 0.807879
vt 0.140517 0.765379
vt 0.146709 0.742660
vt 0.156809 0.776958
vt 0.096576 0.843073
vt 0.128499 0.851575
vt 0.107268 0.829802
vt 0.138006 0.820546
vt 0.133995 0.840079
vt 0.462897 0.852293
vt 0.448688 0.865770
vt 0.445710 0.851240
vt 0.086112 0.866621
vt 0.116221 0.897882
vt 0.165355 0.836562
vt 0.411798 0.834898
vt 0.904330 0.567427
vt 0.910975 0.597461
vt 0.910975 0.574594
vt 0.404991 0.789990
vt 0.388517 0.782947
vt 0.110724 0.806613
vt 0.732251 0.720025
vt 0.861806 0.699509
vt 0.892971 0.499887
vt 0.890127 0.544615
vt 0.877227 0.576621
vt 0.900031 0.558168
vt 0.897496 0.561614
vt 0.874445 0.657826
vt 0.854013 0.688768
vt 0.853805 0.709229
vt 0.859385 0.709578
vt 0.897846 0.499038
vt 0.907808 0.670334
vt 0.905817 0.616113
vt 0.691256 0.568101
vt 0.886661 0.573526
vt 0.883331 0.600991
vt 0.832428 0.546982
vt 0.858806 0.600626
vt 0.452490 0.787846
vt 0.778446 0.592696
vt 0.255470 0.823644
vt 0.129727 0.936383
vt 0.900461 0.593967
vt 0.896233 0.498623
vt 0.894241 0.597628
vn 0.7738 -0.3678 -0.5157
vn 0.6959 0.5908 -0.4083
vn 0.3769 -0.7443 -0.5513
vn 0.7560 -0.4267 0.4964
vn 0.5021 -0.7493 0.4318
vn 0.6647 0.2168 0.7150
vn 0.1453 -0.8569 0.4946
vn -0.6116 0.2359 0.7552
vn -0.3942 -0.8938 -0.2136
vn -0.3900 0.7457 0.5402
vn -0.5448 0.8383 0.0226
vn -0.7257 -0.5678 -0.3886
vn -0.9925 0.0112 -0.1221
vn 0.2376 -0.9709 -0.0314
vn 0.4913 -0.5535 -0.6725
vn 0.5561 0.0572 -0.8291
vn 0.9226 0.1223 -0.3659
vn 0.9796 0.0657 -0.1901
vn 0.9781 -0.2069 0.0237
vn 0.8538 0.2978 0.4271
vn -0.2017 0.9612 0.1881
vn 0.1269 0.8261 0.5490
vn 0.8067 -0.1149 0.5796
vn 0.6682 -0.6521 0.3581
vn 0.1736 0.9488 -0.2637
vn -0.1111 -0.2379 0.9649
vn 0.0708 -0.8607 0.5042
vn 0.5973 0.5714 0.5628
vn 0.3021 0.4974 0.8132
vn 0.2517 -0.9625 0.1015
vn 0.4476 0.0892 0.8898
vn -0.6741 -0.1356 0.7261
vn -0.6445 0.6716 -0.3654
vn -0.4716 0.6902 0.5488
vn -0.7409 0.5060 0.4416
vn -0.9864 -0.1439 0.0794
vn 0.0809 0.9120 0.4022
vn -0.9441 0.2618 0.2002
vn -0.9297 -0.0088 -0.3682
vn 0.1166 -0.9825 -0.1450
vn -0.7502 -0.5379 -0.3845
vn -0.5703 0.8130 0.1179
vn -0.7761 -0.3954 -0.4913
vn -0.6221 -0.6565 -0.4266
vn -0.8601 0.3166 -0.3999
vn 0.0550 -0.8755 -0.4801
vn -0.7722 -0.3252 -0.5459
vn 0.1326 0.9513 0.2782
vn -0.4659 0.8548 -0.2284
vn -0.2897 0.4889 -0.8228
vn -0.4336 0.6393 -0.6350
vn -0.1620 -0.9298 -0.3305
vn 0.2603 -0.0937 -0.9610
vn 0.1187 0.3336 -0.9352
vn 0.9802 0.1028 -0.1692
vn 0.7955 -0.4318 -0.4251
vn 0.6033 0.6579 0.4508
vn -0.6159 -0.2494 0.7473
vn -0.2516 -0.1790 0.9511
vn -0.2466 0.8576 0.4514
vn -0.8494 -0.2360 -0.4720
vn -0.9380 0.0925 -0.3340
vn -0.8228 0.1485 -0.5486
vn -0.5954 0.7222 -0.3519
vn -0.2513 0.7087 -0.6592
vn -0.0063 0.9900 -0.1410
vn -0.6219 0.7447 -0.2424
vn -0.1698 -0.5094 -0.8436
vn -0.9671 0.0851 -0.2396
vn 0.6963 0.7022 0.1487
vn 0.6959 -0.5133 -0.5022
vn -0.5903 -0.0187 0.8070
vn 0.7083 -0.2420 0.6632
vn -0.8779 -0.4730 0.0740
vn -0.2983 0.4735 -0.8287
vn -0.6202 0.0817 -0.7801
vn 0.5477 0.7825 0.2963
vn -0.8605 0.1320 -0.4921
vn -0.1036 0.1257 0.9866
vn 0.7650 0.1247 0.6318
vn 0.9484 0.0723 -0.3086
vn 0.1619 0.1894 -0.9685
vn 0.9559 0.2373 0.1732
vn -0.0546 -0.0883 0.9946
vn 0.1816 -0.0351 -0.9827
vn -0.4348 0.6008 -0.6708
vn 0.3087 0.9073 0.2856
vn 0.4355 0.8058 -0.4013
vn 0.4924 0.3946 0.7758
vn 0.4850 -0.0567 -0.8726
vn -0.3338 0.0584 0.9408
vn -0.9624 0.1803 -0.2030
vn -0.3190 0.9432 -0.0933
vn 0.1630 0.2008 -0.9660
vn 0.2263 0.9322 -0.2824
vn -0.1459 -0.4592 -0.8763
vn -0.1977 -0.6055 -0.7709
vn 0.6560 -0.3193 -0.6839
vn 0.4471 0.7732 -0.4499
vn 0.5383 0.8161 0.2100
vn 0.7151 0.4808 -0.5074
vn 0.4615 0.7812 -0.4204
vn 0.4610 0.7829 -0.4177
vn 0.5729 -0.7048 -0.4185
vn 0.3640 -0.9047 -0.2211
vn 0.3701 0.5945 0.7138
vn 0.9538 -0.2067 0.2179
vn 0.3792 -0.7391 -0.5568
vn 0.8875 0.3189 0.3326
vn 0.3551 -0.9306 0.0891
vn 0.7019 0.4403 0.5599
vn 0.4662 -0.8373 0.2856
vn 0.3223 -0.1281 0.9379
vn -0.3955 -0.6121 -0.6848
vn -0.1813 0.4704 0.8636
vn 0.2571 -0.7325 0.6303
vn 0.3723 -0.9281 0.0048
vn 0.0677 0.1925 0.9790
vn 0.3936 -0.4550 0.7988
vn -0.4340 0.1650 0.8857
vn -0.0345 -0.5950 0.8030
vn -0.2296 -0.8858 0.4032
vn -0.4031 0.7728 0.4902
vn -0.8393 -0.4148 0.3514
vn -0.8889 -0.4571 0.0301
vn -0.9350 0.3536 0.0266
vn 0.1035 -0.9915 -0.0785
vn -0.9952 -0.0883 0.0411
vn -0.5745 0.8164 0.0593
vn -0.9048 0.2837 0.3175
vn -0.8376 0.5463 0.0068
vn -0.9426 -0.1843 -0.2783
vn -0.5507 -0.1908 -0.8126
vn 0.6789 -0.5411 0.4962
vn -0.1345 0.9768 -0.1669
vn -0.3711 -0.4292 -0.8235
vn -0.0505 0.5603 -0.8267
vn -0.2132 0.7443 -0.6329
vn 0.6759 0.6533 -0.3412
vn 0.7840 0.5932 -0.1830
vn 0.6943 0.7195 0.0147
vn 0.5133 -0.8416 -0.1678
vn -0.1936 -0.7410 0.6431
vn 0.3422 -0.9022 0.2627
vn 0.3371 0.7958 0.5030
vn -0.0774 -0.7078 0.7022
vn -0.5347 -0.8361 0.1226
vn -0.0846 -0.7599 0.6445
vn -0.2321 -0.6189 0.7504
vn -0.7274 0.4761 0.4942
vn -0.3179 0.9425 -0.1030
vn -0.4958 -0.8655 0.0716
vn 0.6887 -0.6404 -0.3401
vn -0.8254 0.1537 -0.5433
vn -0.7997 -0.3804 -0.4645
vn -0.4564 -0.3807 -0.8042
vn -0.3331 0.3881 -0.8593
vn 0.0534 -0.8473 -0.5285
vn -0.2529 0.8954 0.3666
vn -0.9061 -0.3378 -0.2549
vn -0.9558 0.2484 0.1572
vn 0.9881 0.0464 0.1467
vn -0.3218 0.0402 -0.9459
vn -0.6095 0.4443 -0.6566
vn 0.8983 -0.1568 0.4104
vn -0.8875 -0.4594 0.0350
vn -0.3976 0.6701 -0.6267
vn 0.0628 -0.8534 0.5175
vn -0.9569 0.2458 0.1544
vn -0.9867 0.0736 0.1447
vn 0.1173 0.2045 0.9718
vn 0.9529 0.1696 0.2515
vn 0.9015 0.1362 0.4108
vn 0.9454 0.2629 -0.1927
vn -0.0818 0.3378 0.9376
vn 0.2864 0.1291 -0.9494
vn 0.2511 -0.0794 -0.9647
vn 0.2897 0.8098 0.5102
vn -0.1594 -0.1531 -0.9753
vn 0.4463 0.7490 -0.4898
vn -0.1614 0.9811 -0.1068
vn -0.1924 0.7779 0.5983
vn -0.4774 -0.4027 -0.7810
vn -0.3206 -0.6444 -0.6942
vn 0.4178 -0.2069 0.8847
vn 0.2057 -0.9312 0.3009
vn -0.4802 -0.8645 0.1481
vn 0.9093 -0.4132 -0.0487
vn -0.8592 0.1214 0.4970
vn -0.9181 0.2041 0.3397
vn 0.9744 -0.0659 -0.2149
s off
f 1/1/1 5/2/1 7/3/1
f 3/4/2 4/5/2 1/6/2
f 7/7/3 8/8/3 2/9/3
f 6/10/4 9/11/4 7/12/4
f 8/8/5 7/7/5 9/13/5
f 6/10/6 4/14/6 9/11/6
f 9/13/7 12/15/7 8/8/7
f 10/16/8 11/17/8 12/18/8
f 8/19/9 12/20/9 2/21/9
f 13/22/10 11/17/10 10/16/10
f 11/23/11 13/24/11 14/25/11
f 12/26/12 15/27/12 2/28/12
f 11/29/13 15/27/13 12/26/13
f 20/30/14 24/31/14 26/32/14
f 20/33/15 26/34/15 60/35/15
f 19/36/16 23/37/16 26/38/16
f 26/39/17 23/40/17 25/41/17
f 25/41/18 30/42/18 26/43/18
f 26/44/19 30/42/19 31/45/19
f 25/41/20 28/46/20 30/42/20
f 28/47/21 47/48/21 29/49/21
f 28/50/22 29/51/22 32/52/22
f 32/53/23 34/54/23 30/42/23
f 33/55/24 35/56/24 31/45/24
f 29/57/25 47/48/25 38/58/25
f 35/59/26 34/60/26 40/61/26
f 35/62/27 40/63/27 36/64/27
f 37/65/28 38/66/28 41/67/28
f 34/60/29 37/68/29 42/69/29
f 27/70/30 36/64/30 51/71/30
f 37/65/31 41/67/31 42/72/31
f 39/73/32 43/74/32 44/75/32
f 38/76/33 47/77/33 45/78/33
f 41/79/34 45/80/34 42/69/34
f 43/74/35 42/69/35 45/81/35
f 43/82/36 49/83/36 44/84/36
f 45/85/37 47/86/37 54/87/37
f 48/88/38 45/89/38 52/90/38
f 49/83/39 48/91/39 56/92/39
f 27/93/40 51/94/40 50/95/40
f 49/96/41 56/92/41 57/97/41
f 52/98/42 54/99/42 55/100/42
f 49/101/43 57/102/43 50/103/43
f 48/104/44 53/105/44 58/106/44
f 53/105/45 55/107/45 58/106/45
f 27/70/46 50/108/46 57/102/46
f 58/106/47 18/109/47 59/110/47
f 54/99/48 47/48/48 21/111/48
f 54/99/49 21/111/49 16/112/49
f 55/100/50 16/112/50 58/113/50
f 58/113/51 16/112/51 17/114/51
f 60/115/52 27/70/52 57/102/52
f 62/116/53 64/117/53 63/118/53
f 62/116/54 61/119/54 64/117/54
f 67/120/55 68/121/55 64/122/55
f 64/123/56 68/124/56 63/125/56
f 67/120/57 76/126/57 69/127/57
f 72/128/58 71/129/58 69/130/58
f 71/131/59 72/132/59 73/133/59
f 76/134/60 80/135/60 77/136/60
f 75/137/61 74/138/61 66/139/61
f 73/140/62 77/141/62 78/142/62
f 79/143/63 81/144/63 78/142/63
f 80/135/64 79/145/64 77/136/64
f 79/145/65 80/135/65 61/146/65
f 80/135/66 76/134/66 65/147/66
f 61/146/67 62/148/67 81/149/67
f 82/150/68 62/151/68 63/125/68
f 83/152/69 89/153/69 87/154/69
f 85/155/70 86/156/70 89/157/70
f 86/158/71 87/159/71 90/160/71
f 86/161/72 88/162/72 89/163/72
f 98/164/73 96/165/73 93/166/73
f 96/167/74 97/168/74 93/169/74
f 97/170/75 98/171/75 94/172/75
f 98/173/76 95/174/76 92/175/76
f 98/164/77 92/176/77 96/165/77
f 104/177/78 99/178/78 101/179/78
f 103/180/79 110/181/79 100/182/79
f 108/183/80 100/184/80 112/185/80
f 102/186/81 112/185/81 111/187/81
f 102/188/82 111/189/82 99/190/82
f 106/191/83 108/183/83 102/186/83
f 106/192/84 109/193/84 108/194/84
f 104/195/85 105/196/85 102/188/85
f 15/197/86 3/4/86 1/6/86
f 13/198/87 4/14/87 3/199/87
f 1/6/88 4/5/88 5/200/88
f 4/14/89 10/201/89 9/11/89
f 19/202/90 20/203/90 18/204/90
f 9/205/91 10/16/91 12/18/91
f 11/29/92 14/206/92 15/27/92
f 13/24/93 3/4/93 14/25/93
f 15/207/94 14/208/94 3/209/94
f 16/112/95 21/111/95 22/210/95
f 59/211/96 18/204/96 20/203/96
f 60/212/97 59/211/97 20/203/97
f 19/213/98 17/214/98 23/215/98
f 23/216/99 16/112/99 22/210/99
f 47/48/100 22/210/100 21/111/100
f 19/202/101 26/217/101 24/218/101
f 22/210/102 25/219/102 23/216/102
f 22/210/103 28/47/103 25/219/103
f 60/220/104 26/32/104 31/221/104
f 27/70/105 60/220/105 31/221/105
f 37/68/106 29/51/106 38/222/106
f 31/45/107 30/42/107 33/55/107
f 2/223/108 1/224/108 7/7/108
f 30/42/109 28/46/109 32/53/109
f 31/221/110 36/64/110 27/70/110
f 33/55/111 30/42/111 34/54/111
f 31/221/112 35/62/112 36/64/112
f 33/225/113 34/60/113 35/59/113
f 59/211/114 57/226/114 56/227/114
f 34/60/115 32/52/115 37/68/115
f 36/64/116 40/63/116 46/228/116
f 36/64/117 46/228/117 51/71/117
f 34/60/118 42/69/118 39/73/118
f 40/229/119 34/230/119 39/231/119
f 39/73/120 42/69/120 43/74/120
f 40/232/121 39/73/121 44/75/121
f 40/63/122 44/233/122 50/234/122
f 41/79/123 38/235/123 45/236/123
f 46/237/124 40/238/124 50/239/124
f 44/233/125 49/240/125 50/234/125
f 43/241/126 45/89/126 48/88/126
f 51/242/127 46/243/127 50/244/127
f 49/83/128 43/82/128 48/91/128
f 45/245/129 54/99/129 52/246/129
f 48/104/130 52/90/130 53/105/130
f 52/247/131 55/107/131 53/105/131
f 56/92/132 48/91/132 58/248/132
f 56/249/133 58/250/133 59/211/133
f 70/251/134 67/252/134 69/253/134
f 55/100/135 54/99/135 16/112/135
f 58/106/136 17/254/136 19/255/136
f 18/256/137 58/257/137 19/36/137
f 80/258/138 65/259/138 61/260/138
f 61/261/139 65/262/139 64/263/139
f 65/262/140 67/264/140 64/263/140
f 65/262/141 76/265/141 67/264/141
f 63/125/142 68/124/142 66/266/142
f 75/267/143 70/268/143 71/269/143
f 66/266/144 68/124/144 70/268/144
f 69/270/145 76/271/145 72/272/145
f 70/273/146 69/274/146 71/131/146
f 82/275/147 74/276/147 78/277/147
f 71/278/148 74/279/148 75/280/148
f 71/131/149 73/133/149 74/281/149
f 73/133/150 72/132/150 77/282/150
f 72/283/151 76/134/151 77/136/151
f 74/284/152 73/140/152 78/142/152
f 86/285/153 84/286/153 87/287/153
f 78/142/154 77/141/154 79/143/154
f 82/288/155 78/142/155 81/144/155
f 81/144/156 62/289/156 82/288/156
f 81/149/157 79/145/157 61/146/157
f 66/290/158 82/150/158 63/125/158
f 89/157/159 83/291/159 85/155/159
f 83/152/160 87/154/160 84/292/160
f 101/293/161 103/294/161 104/295/161
f 86/285/162 90/296/162 88/297/162
f 87/154/163 89/153/163 90/298/163
f 98/299/164 91/300/164 94/301/164
f 98/164/165 93/166/165 91/302/165
f 97/170/166 94/172/166 93/303/166
f 97/170/167 95/304/167 98/171/167
f 95/305/168 97/168/168 96/167/168
f 104/295/169 103/294/169 109/306/169
f 109/306/170 107/307/170 104/295/170
f 108/183/171 103/308/171 100/184/171
f 102/186/172 108/183/172 112/185/172
f 105/309/173 106/191/173 102/186/173
f 6/10/174 5/310/174 4/14/174
f 103/180/175 108/194/175 109/193/175
f 102/188/176 99/190/176 104/195/176
f 104/195/177 107/311/177 105/196/177
f 13/198/178 10/201/178 4/14/178
f 19/202/179 24/218/179 20/203/179
f 23/216/180 17/114/180 16/112/180
f 47/48/181 28/47/181 22/210/181
f 37/68/182 32/52/182 29/51/182
f 2/223/183 15/312/183 1/224/183
f 59/211/184 60/212/184 57/226/184
f 70/251/185 68/313/185 67/252/185
f 75/267/186 66/266/186 70/268/186
f 82/275/187 66/290/187 74/276/187
f 86/285/188 85/314/188 84/286/188
f 101/293/189 110/315/189 103/294/189
f 109/306/190 106/316/190 107/307/190
f 6/10/191 7/12/191 5/310/191
